{"title":"Mechanic 2 Resurrection HDTS x264-VAiN","uid":15545658,"size":1482967285,"categoryP":"video","categoryS":"movies","magnet":"?xt=urn:btih:0e6ef090498f47db58a1d6035bc244eb6a9cbd83&amp;dn=Mechanic+2+Resurrection+HDTS+x264-VAiN&amp;tr=udp%3A%2F%2Ftracker.leechers-paradise.org%3A6969&amp;tr=udp%3A%2F%2Fzer0day.ch%3A1337&amp;tr=udp%3A%2F%2Fopen.demonii.com%3A1337&amp;tr=udp%3A%2F%2Ftracker.coppersurfer.tk%3A6969&amp;tr=udp%3A%2F%2Fexodus.desync.com%3A6969","seeders":62,"leechers":19,"uploader":"makintos13","files":3,"time":1470968948,"description":"Mechanic 2 Resurrection HDTS x264-VAiN\r\n\r\nscreens:\r\n \nhttps://imgmak.com/amw\r\n \nhttps://imgmak.com/amJ\r\n \nhttps://imgmak.com/amW\r\n \nhttps://imgmak.com/amd\r\n\r\n\r\nP R E S E N T S . . . .\r\n\r\nMechanic.2.Resurrection.HDTS.x264-VAiN\r\n\r\niMDB........: http://www.imdb.com/title/tt3522806/\r\n\r\n\r\nT E C H N i C A L . i N F O . . .\r\n\r\nBasic Information\r\nFormat : Matroska\r\nFormat version : Version 4 / Version 2\r\nFile size : 1.37 GiB\r\nDuration : 1 h 35 min\r\nOverall bit rate mode : Variable\r\nOverall bit rate : 2 060 kb/s\r\nEncoded date : UTC 2016-08-11 22:51:47\r\nWriting application : mkvmerge v8.3.0 ('Over the Horizon') 64bit\r\nWriting library : libebml v1.3.1 + libmatroska v1.4.2\r\n\r\nVideo\r\nID : 1\r\nFormat : AVC\r\nFormat/Info : Advanced Video Codec\r\nFormat profile :   \r\nFormat settings, CABAC : Yes\r\nFormat settings, ReFrames : 3 frames\r\nCodec ID : V_MPEG4/ISO/AVC\r\nDuration : 1 h 35 min\r\nBit rate mode : Variable\r\nBit rate : 1 866 kb/s\r\nMaximum bit rate : 40.0 Mb/s\r\nWidth : 704 pixels\r\nHeight : 288 pixels\r\nDisplay aspect ratio : 2.40:1\r\nFrame rate mode : Constant\r\nFrame rate : 23.976 (24000/1001) FPS\r\nColor space : YUV\r\nChroma subsampling : 4:2:0\r\nBit depth : 8 bits\r\nScan type : Progressive\r\nBits/(Pixel*Frame) : 0.384\r\nStream size : 1.24 GiB (91%)\r\nWriting library : x264 core 148 r2692 64f4e24\r\nDefault : Yes\r\nForced : No\r\nColor range : Full\r\nColor primaries : BT.709\r\nTransfer characteristics : BT.709\r\nMatrix coefficients : BT.709\r\n\r\nAudio\r\nID : 2\r\nFormat : MPEG Audio\r\nFormat version : Version 1\r\nFormat profile : Layer 3\r\nMode : Joint stereo\r\nMode extension : MS Stereo\r\nCodec ID : A_MPEG/L3\r\nCodec ID/Hint : MP3\r\nDuration : 1 h 35 min\r\nBit rate mode : Constant\r\nBit rate : 192 kb/s\r\nChannel(s) : 2 channels\r\nSampling rate : 48.0 kHz\r\nFrame rate : 41.667 FPS (1152 spf)\r\nCompression mode : Lossy\r\nStream size : 131 MiB (9%)\r\nDefault : Yes\r\nForced : No\r\n\r\n\r\n\r\n\r\n\r\nE N C O D E R S . N O T E S . . .\r\n\r\nSOURCE......: ViDEO...the webz\r\n............: AUDiO...the webz\r\nSAMPLE......: Yippers\r\nADDED NOTE..: Love Me.... Love You... well seen this on the webz one time audio was terrible. this time, audio seems like digital or line. video had soem green and red tint in it... got rid of the green sum what the red however, some scenes faces do have more of an orange/red look. nothing bad as this movie is worth just this, LOL!!!!!\r\nWe took the ol' poo shine filters added to both audio and video. there is a watermark from some spanish casino site that pops up in the beg, mid and end but each time goes away. there is also some time code from either the capper popping it from a monitor or some kinda work print, lastly there is some latino subs LOL!!!! i know so much on such a small vid ffs.. anyways... this should do until better enjoy or don't... pass or grab sample included for QUALiTY check","torrent":{"xt":"urn:btih:0e6ef090498f47db58a1d6035bc244eb6a9cbd83","amp;dn":"Mechanic+2+Resurrection+HDTS+x264-VAiN","amp;tr":["udp%3A%2F%2Ftracker.leechers-paradise.org%3A6969","udp%3A%2F%2Fzer0day.ch%3A1337","udp%3A%2F%2Fopen.demonii.com%3A1337","udp%3A%2F%2Ftracker.coppersurfer.tk%3A6969","udp%3A%2F%2Fexodus.desync.com%3A6969"],"infoHash":"0e6ef090498f47db58a1d6035bc244eb6a9cbd83","infoHashBuffer":{"type":"Buffer","data":[14,110,240,144,73,143,71,219,88,161,214,3,91,194,68,235,106,156,189,131]},"announce":[],"urlList":[]}}